:version 1.10
:name ASF
:units
  mass 1
  length 1
  angle deg
:documentation
  ASF file generated by Kaydara
:root
  axis xyz
  order  tx ty tz rx ry rz
  position 0 0 0
  orientation 0 0 0
:bonedata
  begin
    id 1
    name RightUpLegDummy
    direction -0.65628 -0.754516 0.00165102
    length 4.76918
    axis 0 0 0 xyz
  end
  begin
    id 2
    name RightUpLeg
    direction -0.145584 -0.923362 0.355256
    length 17.9961
    axis -24.7611 -13.1006 1.78531 xyz
    dof rx ry rz
  end
  begin
    id 3
    name RightLeg
    direction 0.263379 0.172355 -0.949171
    length 13.3386
    axis 89.6202 -21.1929 12.3855 xyz
    dof rx ry rz
  end
  begin
    id 4
    name RightFoot
    direction 0.224283 -0.968777 -0.105675
    length 5.86697
    axis 56.995 -39.6905 17.3365 xyz
    dof rx ry rz
  end
  begin
    id 5
    name RightToes
    direction -0.0806345 -0.9037 0.420506
    length 4.75197
    axis 146.825 -39.7828 17.6019 xyz
    dof rx ry rz
  end
  begin
    id 6
    name SpineDummy
    direction -3.39852e-014 1 9.33296e-014
    length 8.13779
    axis 0 0 0 xyz
  end
  begin
    id 7
    name Spine
    direction -0.156609 0.733703 0.661176
    length 7.14978
    axis 41.2365 5.68757 17.0844 xyz
    dof rx ry rz
  end
  begin
    id 8
    name Spine1
    direction 0 0 0
    length 0
    axis 42.8809 47.8308 -3.36039 xyz
    dof rx ry rz
  end
  begin
    id 9
    name HEadDummy
    direction 0.546431 0.701947 0.456819
    length 3.55512
    axis 42.8809 47.8308 -3.36039 xyz
  end
  begin
    id 10
    name HEad
    direction 0.23444 0.828559 0.508457
    length 7.35827
    axis 51.1864 49.2662 27.4903 xyz
    dof rx ry rz
  end
  begin
    id 11
    name LeftShoulder1Dummy
    direction 0.431183 0.475873 -0.766568
    length 2.49352
    axis 42.8809 47.8308 -3.36039 xyz
  end
  begin
    id 12
    name LeftShoulder1
    direction 0.268187 -0.383402 -0.883786
    length 4.48604
    axis -119.517 0.106469 35.1736 xyz
    dof rx ry rz
  end
  begin
    id 13
    name LeftArm
    direction 0.380567 -0.703221 -0.600541
    length 10.1142
    axis -5.41825 36.2925 7.8293 xyz
    dof rx ry rz
  end
  begin
    id 14
    name LeftForeArm
    direction 0.541071 -0.732356 -0.413396
    length 9.39839
    axis 4.65387 33.7604 7.81644 xyz
    dof rx ry rz
  end
  begin
    id 15
    name LeftHand
    direction 0.847511 -0.389379 -0.360707
    length 3.66142
    axis 7.65593 21.1436 -24.6758 xyz
    dof rx ry rz
  end
  begin
    id 16
    name RightShoulderDummy
    direction -0.692546 0.541855 0.476208
    length 2.49352
    axis 42.8809 47.8308 -3.36039 xyz
  end
  begin
    id 17
    name RightShoulder
    direction -0.870808 -0.316653 0.376065
    length 4.48602
    axis 141.571 51.133 -100.254 xyz
    dof rx ry rz
  end
  begin
    id 18
    name RightArm
    direction 0.366897 -0.87275 0.322015
    length 10.1142
    axis 92.3258 71.2036 138.917 xyz
    dof rx ry rz
  end
  begin
    id 19
    name RightForeArm
    direction 0.702487 -0.694568 0.155197
    length 9.39835
    axis 153.863 41.5092 -176.604 xyz
    dof rx ry rz
  end
  begin
    id 20
    name RightHand
    direction 0.79502 -0.601276 0.0800636
    length 3.66142
    axis 154.247 4.59222 142.9 xyz
    dof rx ry rz
  end
  begin
    id 21
    name LeftUpLegDummy
    direction 0.65628 -0.754516 0.00165102
    length 4.76919
    axis 0 0 0 xyz
  end
  begin
    id 22
    name LeftUpLeg
    direction -0.1277 -0.689368 0.713067
    length 17.9961
    axis -48.3385 -17.8675 0.791927 xyz
    dof rx ry rz
  end
  begin
    id 23
    name LeftLeg
    direction 0.109849 -0.991246 -0.0732378
    length 13.3386
    axis -2.05791 -7.30784 1.72042 xyz
    dof rx ry rz
  end
  begin
    id 24
    name LeftFoot
    direction 0.0448355 -0.272614 0.961078
    length 5.86697
    axis -18.7733 -7.89606 10.2113 xyz
    dof rx ry rz
  end
  begin
    id 25
    name LeftToes
    direction -0.18506 0.293668 0.937823
    length 4.75197
    axis 71.2267 -7.89606 10.2113 xyz
    dof rx ry rz
  end
:hierarchy
  begin
    root RightUpLegDummy SpineDummy LeftUpLegDummy
    RightUpLegDummy RightUpLeg
    RightUpLeg RightLeg
    RightLeg RightFoot
    RightFoot RightToes
    SpineDummy Spine
    Spine Spine1
    Spine1 HEadDummy LeftShoulder1Dummy RightShoulderDummy
    HEadDummy HEad
    LeftShoulder1Dummy LeftShoulder1
    LeftShoulder1 LeftArm
    LeftArm LeftForeArm
    LeftForeArm LeftHand
    RightShoulderDummy RightShoulder
    RightShoulder RightArm
    RightArm RightForeArm
    RightForeArm RightHand
    LeftUpLegDummy LeftUpLeg
    LeftUpLeg LeftLeg
    LeftLeg LeftFoot
    LeftFoot LeftToes
  end

:SAMPLES-PER-SECOND 30
:FULLY-SPECIFIED
:DEGREES
191
root  -1.73249 36.8367 37.4032 -179.321 1.78342 174.428
RightUpLeg  13.9946 -6.13626 -7.65973
RightLeg  -40.6267 -27.3941 6.2691
RightFoot  22.2624 4.93431 -16.3646
RightToes  -1.27222e-014 -6.36111e-015 6.36111e-015
Spine  -29.2549 -17.0485 -11.961
Spine1  16.4678 -13.3072 37.8
HEad  -8.82579 -11.8926 -16.3058
LeftShoulder1  6.36111e-015 -1.33558e-015 6.49777e-015
LeftArm  10.9782 -16.8813 -35.0554
LeftForeArm  -25.2869 -50.3954 19.1114
LeftHand  -0.0321454 1.22549 -5.35928
RightShoulder  -4.77083e-015 -6.36111e-015 -3.18055e-015
RightArm  56.8614 -36.7729 -10.1768
RightForeArm  -10.8275 -9.50615 -7.27884
RightHand  -0.311104 3.83109 -3.67514
LeftUpLeg  17.7077 35.7943 9.66502
LeftLeg  2.60259 -10.9231 -1.64193
LeftFoot  -3.9599 -0.543431 2.22917
LeftToes  9.54166e-015 4.2066e-011 -8.07781e-011
192
root  -1.55845 37.2678 35.9756 -179.846 -0.162578 174.274
RightUpLeg  9.34686 -2.61422 -5.65119
RightLeg  -32.9399 -26.7559 3.59917
RightFoot  19.8373 4.76092 -15.7082
RightToes  -1.27222e-014 -6.36111e-015 6.36111e-015
Spine  -29.7104 -19.0139 -13.7642
Spine1  16.0973 -14.6861 40.1802
HEad  -6.94835 -11.8562 -15.6445
LeftShoulder1  6.36111e-015 -1.33558e-015 6.49777e-015
LeftArm  14.9672 -22.9102 -43.4816
LeftForeArm  -27.1481 -54.638 23.8956
LeftHand  -0.541152 0.107952 -6.95064
RightShoulder  -4.77083e-015 -6.36111e-015 -3.18055e-015
RightArm  56.6609 -41.2679 -10.0403
RightForeArm  -8.6665 -8.00707 -6.52459
RightHand  -0.0487429 3.42154 -5.44581
LeftUpLeg  22.878 35.2081 10.902
LeftLeg  0.487747 -12.7352 -1.69598
LeftFoot  -4.39989 -0.0968698 0.513933
LeftToes  9.54166e-015 4.2066e-011 -8.07781e-011
193
root  -1.39764 37.8697 34.4903 179.651 -0.907538 174.507
RightUpLeg  5.06776 1.45693 -3.2603
RightLeg  -31.5862 -26.2874 3.03499
RightFoot  19.256 5.78576 -17.22
RightToes  -1.27222e-014 -6.36111e-015 6.36111e-015
Spine  -30.0508 -21.2742 -15.5697
Spine1  14.3501 -16.3215 42.8664
HEad  -3.55255 -10.244 -15.5998
LeftShoulder1  6.36111e-015 -1.33558e-015 6.49777e-015
LeftArm  19.0886 -26.3222 -50.1455
LeftForeArm  -31.9802 -58.9686 31.5314
LeftHand  -1.08873 -1.15649 -8.94472
RightShoulder  -4.77083e-015 -6.36111e-015 -3.18055e-015
RightArm  57.7758 -44.3502 -12.3467
RightForeArm  -7.61849 -7.09762 -5.96025
RightHand  -0.0359036 3.52594 -5.80979
LeftUpLeg  28.828 35.0841 13.9192
LeftLeg  -2.30058 -15.7222 -1.61182
LeftFoot  -3.78297 0.585074 -2.13049
LeftToes  9.54166e-015 4.2066e-011 -8.07781e-011
194
root  -1.23023 38.6269 32.8863 179.084 -2.33449 175.088
RightUpLeg  2.04405 3.467 -1.95405
RightLeg  -36.3693 -26.4523 4.42861
RightFoot  18.1807 6.49981 -18.2156
RightToes  -1.27222e-014 -6.36111e-015 6.36111e-015
Spine  -31.239 -23.8998 -16.7297
Spine1  12.4585 -18.3185 46.8103
HEad  0.256154 -8.20941 -15.597
LeftShoulder1  6.36111e-015 -1.33558e-015 6.49777e-015
LeftArm  22.3823 -28.5363 -54.6973
LeftForeArm  -37.3697 -60.6115 37.6864
LeftHand  -1.34982 -1.79932 -9.98062
RightShoulder  -4.77083e-015 -6.36111e-015 -3.18055e-015
RightArm  59.8147 -45.9996 -15.0067
RightForeArm  -8.582 -7.87358 -6.6209
RightHand  0.0208633 3.45522 -6.21545
LeftUpLeg  35.411 34.5746 18.072
LeftLeg  -5.62327 -19.7803 -1.15445
LeftFoot  -1.6744 1.65205 -5.82013
LeftToes  9.54166e-015 4.2066e-011 -8.07781e-011
195
root  -1.05975 39.3431 31.2301 178.533 -4.76766 175.543
RightUpLeg  0.211863 3.22261 -2.27275
RightLeg  -45.6802 -25.7295 6.87158
RightFoot  16.8874 5.9015 -17.0635
RightToes  -1.27222e-014 -6.36111e-015 6.36111e-015
Spine  -33.0156 -26.9517 -17.718
Spine1  10.8335 -20.4013 51.9085
HEad  4.02856 -6.76028 -15.3161
LeftShoulder1  6.36111e-015 -1.33558e-015 6.49777e-015
LeftArm  24.9625 -30.6763 -57.9284
LeftForeArm  -38.916 -59.3793 37.5812
LeftHand  -1.23279 -1.51865 -9.45831
RightShoulder  -4.77083e-015 -6.36111e-015 -3.18055e-015
RightArm  62.8734 -46.6428 -19.3107
RightForeArm  -10.1511 -7.88539 -7.68739
RightHand  0.220222 3.04535 -7.21923
LeftUpLeg  41.2723 33.0468 21.4972
LeftLeg  -9.14681 -23.9448 -0.17927
LeftFoot  1.98235 3.361 -10.6358
LeftToes  9.54166e-015 4.2066e-011 -8.07781e-011
196
root  -0.898618 39.7629 29.6438 178.074 -7.07638 175.333
RightUpLeg  -0.820186 2.6824 -3.5676
RightLeg  -57.3603 -23.0879 8.7868
RightFoot  17.6358 5.32261 -16.2327
RightToes  -1.27222e-014 -6.36111e-015 6.36111e-015
Spine  -34.0637 -30.1626 -19.344
Spine1  9.10551 -22.075 56.9777
HEad  7.22832 -5.97441 -15.0876
LeftShoulder1  6.36111e-015 -1.33558e-015 6.49777e-015
LeftArm  26.8209 -32.643 -60.2402
LeftForeArm  -37.7682 -57.4869 34.4518
LeftHand  -1.00199 -1.03935 -8.22147
RightShoulder  -4.77083e-015 -6.36111e-015 -3.18055e-015
RightArm  66.8043 -46.3556 -25.7057
RightForeArm  -11.7016 -5.98676 -8.81151
RightHand  0.527198 2.24861 -8.25471
LeftUpLeg  44.8116 30.497 21.3231
LeftLeg  -11.8078 -26.2674 0.803356
LeftFoot  4.8706 5.05986 -14.7206
LeftToes  9.54166e-015 4.2066e-011 -8.07781e-011
197
root  -0.803786 39.9361 28.1479 177.608 -8.07733 174.91
RightUpLeg  -0.896406 3.70408 -4.38463
RightLeg  -70.2632 -18.7534 8.58789
RightFoot  19.4776 5.72011 -17.1483
RightToes  -1.27222e-014 -6.36111e-015 6.36111e-015
Spine  -34.691 -32.1837 -20.5288
Spine1  7.51352 -22.7466 60.888
HEad  9.34656 -5.43888 -15.3717
LeftShoulder1  6.36111e-015 -1.33558e-015 6.49777e-015
LeftArm  27.5582 -33.8045 -61.152
LeftForeArm  -36.4317 -56.7626 32.5952
LeftHand  -0.942457 -0.985008 -7.62469
RightShoulder  -4.77083e-015 -6.36111e-015 -3.18055e-015
RightArm  70.0963 -45.0217 -31.0012
RightForeArm  -13.9697 -3.96569 -10.2838
RightHand  0.819436 1.39208 -8.91396
LeftUpLeg  47.0729 27.4432 17.4195
LeftLeg  -14.3297 -25.0196 1.37617
LeftFoot  5.75341 5.37829 -15.2666
LeftToes  9.54166e-015 4.2066e-011 -8.07781e-011
198
root  -0.812586 39.9743 26.7154 177.071 -7.72732 175.115
RightUpLeg  0.347717 6.58298 -3.9353
RightLeg  -84.4232 -14.0435 5.33553
RightFoot  19.7736 5.66724 -17.1081
RightToes  -1.27222e-014 -6.36111e-015 6.36111e-015
Spine  -36.2224 -32.2554 -19.754
Spine1  6.67316 -22.5571 63.2182
HEad  10.4533 -4.92178 -16.0201
LeftShoulder1  6.36111e-015 -1.33558e-015 6.49777e-015
LeftArm  27.2192 -33.6933 -60.497
LeftForeArm  -34.6824 -56.6051 31.1067
LeftHand  -1.02181 -1.224 -7.67707
RightShoulder  -4.77083e-015 -6.36111e-015 -3.18055e-015
RightArm  72.0356 -43.0744 -33.8426
RightForeArm  -16.7923 -2.03191 -11.9969
RightHand  0.877891 1.18488 -8.96111
LeftUpLeg  50.2994 25.073 13.2526
LeftLeg  -18.1193 -20.4253 1.32929
LeftFoot  5.85472 4.0098 -11.378
LeftToes  9.54166e-015 4.2066e-011 -8.07781e-011
199
root  -0.828646 39.713 25.3285 176.44 -6.76573 175.927
RightUpLeg  2.36414 11.2196 -2.38885
RightLeg  -97.9782 -11.2786 1.44359
RightFoot  20.4904 4.10602 -14.8161
RightToes  -1.27222e-014 -6.36111e-015 6.36111e-015
Spine  -37.8884 -31.3602 -17.9487
Spine1  6.13082 -22.2489 64.4068
HEad  10.5183 -4.20287 -16.6248
LeftShoulder1  6.36111e-015 -1.33558e-015 6.49777e-015
LeftArm  25.8783 -31.8298 -58.6013
LeftForeArm  -31.1804 -55.4532 27.3946
LeftHand  -0.98445 -1.12933 -7.57152
RightShoulder  -4.77083e-015 -6.36111e-015 -3.18055e-015
RightArm  72.3144 -41.0783 -34.1863
RightForeArm  -19.9922 0.375697 -14.2156
RightHand  0.636456 1.80649 -8.24873
LeftUpLeg  54.8986 24.0858 11.812
LeftLeg  -21.9513 -15.3828 0.486928
LeftFoot  4.35248 1.97706 -5.85384
LeftToes  9.54166e-015 4.2066e-011 -8.07781e-011
